<?xml version="1.0"?>
<svg xmlns="http://www.w3.org/2000/svg" xmlns:xlink="http://www.w3.org/1999/xlink" xmlns:svgjs="http://svgjs.com/svgjs" version="1.1" width="512" height="512" x="0" y="0" viewBox="0 0 390.85 390.85" style="enable-background:new 0 0 512 512" xml:space="preserve" class=""><g>
<g xmlns="http://www.w3.org/2000/svg">
	<path d="M162.949,134.181c-33.771,17.905-46.677,59.967-28.771,93.734c17.907,33.771,59.985,46.666,93.731,28.757   c33.771-17.909,46.675-59.967,28.766-93.726C238.765,129.179,196.703,116.273,162.949,134.181z M211.67,226.051   c-16.895,8.969-37.89,2.524-46.862-14.391c-8.971-16.9-2.527-37.891,14.375-46.863c16.903-8.973,37.894-2.531,46.863,14.391   C235.022,196.095,228.57,217.083,211.67,226.051z" fill="#ffffff" data-original="#000000" style="" class=""/>
	<path d="M103.875,22.822C8.554,73.38-27.745,191.645,22.819,286.984C73.382,382.3,191.652,418.6,286.97,368.034   c95.333-50.569,131.624-168.828,81.059-264.157C317.467,8.534,199.209-27.748,103.875,22.822z M142.521,359.807   c-36.055-10.479-68.689-32.621-91.754-64.576l51.437-30.48c13.006,16.299,29.996,28.305,48.781,35.342L142.521,359.807z    M239.723,278.957c-46.056,24.418-103.396,6.833-127.825-39.22c-24.413-46.052-6.831-103.396,39.236-127.83   c46.042-24.413,103.376-6.82,127.81,39.229C303.369,197.19,285.776,254.524,239.723,278.957z M283.973,124.579   c-13-16.306-29.992-28.314-48.779-35.349l8.464-59.708C279.713,40,312.345,62.145,335.417,94.103L283.973,124.579z" fill="#ffffff" data-original="#000000" style="" class=""/>
</g>
<g xmlns="http://www.w3.org/2000/svg">
</g>
<g xmlns="http://www.w3.org/2000/svg">
</g>
<g xmlns="http://www.w3.org/2000/svg">
</g>
<g xmlns="http://www.w3.org/2000/svg">
</g>
<g xmlns="http://www.w3.org/2000/svg">
</g>
<g xmlns="http://www.w3.org/2000/svg">
</g>
<g xmlns="http://www.w3.org/2000/svg">
</g>
<g xmlns="http://www.w3.org/2000/svg">
</g>
<g xmlns="http://www.w3.org/2000/svg">
</g>
<g xmlns="http://www.w3.org/2000/svg">
</g>
<g xmlns="http://www.w3.org/2000/svg">
</g>
<g xmlns="http://www.w3.org/2000/svg">
</g>
<g xmlns="http://www.w3.org/2000/svg">
</g>
<g xmlns="http://www.w3.org/2000/svg">
</g>
<g xmlns="http://www.w3.org/2000/svg">
</g>
</g></svg>
